<?xml version="1.0" encoding="UTF-8"?>
<svg id="Layer_1" data-name="Layer 1" xmlns="http://www.w3.org/2000/svg" xmlns:xlink="http://www.w3.org/1999/xlink" viewBox="0 0 1985.84 1820.16">
  <defs>
    <style>
      .cls-1, .cls-2 {
        font-size: 170.38px;
      }

      .cls-1, .cls-2, .cls-3, .cls-4 {
        font-family: OCRAExtended, 'OCR A Extended';
      }

      .cls-1, .cls-4 {
        fill: #d3d3ad;
      }

      .cls-2, .cls-3 {
        fill: #54743f;
      }

      .cls-3, .cls-4 {
        font-size: 117.51px;
      }
    </style>
  </defs>
  <image width="1690" height="1549" transform="scale(1.18)" xlink:href="../logosv1.png"/>
  <g>
    <text class="cls-2" transform="translate(841.95 1593.67) rotate(.93) scale(1.04 1)"><tspan x="0" y="0">R</tspan></text>
    <text class="cls-2" transform="translate(943.78 1595.56) rotate(-10.83) scale(1.04 1)"><tspan x="0" y="0">o</tspan></text>
    <text class="cls-2" transform="translate(1046.03 1576.35) rotate(-22.57) scale(1.04 1)"><tspan x="0" y="0">c</tspan></text>
    <text class="cls-2" transform="translate(1142.35 1536.66) rotate(-34.27) scale(1.04 1)"><tspan x="0" y="0">k</tspan></text>
    <text class="cls-2" transform="translate(1226.22 1480.26) rotate(-45.54) scale(1.04 1)"><tspan x="0" y="0">e</tspan></text>
    <text class="cls-2" transform="translate(1297.49 1408.54) rotate(-56.81) scale(1.04 1)"><tspan x="0" y="0">t</tspan></text>
    <text class="cls-2" transform="translate(1354.63 1321.86) rotate(-68.48) scale(1.04 1)"><tspan x="0" y="0">r</tspan></text>
    <text class="cls-2" transform="translate(1393.08 1225.33) rotate(-80.2) scale(1.04 1)"><tspan x="0" y="0">y</tspan></text>
    <text class="cls-1" transform="translate(855.43 1593.67) rotate(.93) scale(1.04 1)"><tspan x="0" y="0">R</tspan></text>
    <text class="cls-1" transform="translate(957.25 1595.56) rotate(-10.83) scale(1.04 1)"><tspan x="0" y="0">o</tspan></text>
    <text class="cls-1" transform="translate(1059.51 1576.35) rotate(-22.57) scale(1.04 1)"><tspan x="0" y="0">c</tspan></text>
    <text class="cls-1" transform="translate(1155.83 1536.66) rotate(-34.27) scale(1.04 1)"><tspan x="0" y="0">k</tspan></text>
    <text class="cls-1" transform="translate(1239.7 1480.26) rotate(-45.54) scale(1.04 1)"><tspan x="0" y="0">e</tspan></text>
    <text class="cls-1" transform="translate(1310.97 1408.54) rotate(-56.81) scale(1.04 1)"><tspan x="0" y="0">t</tspan></text>
    <text class="cls-1" transform="translate(1368.11 1321.86) rotate(-68.48) scale(1.04 1)"><tspan x="0" y="0">r</tspan></text>
    <text class="cls-1" transform="translate(1406.56 1225.33) rotate(-80.2) scale(1.04 1)"><tspan x="0" y="0">y</tspan></text>
  </g>
  <g>
    <text class="cls-3" transform="translate(713.92 503.15) rotate(-26.64) scale(1.04 1)"><tspan x="0" y="0">C</tspan></text>
    <text class="cls-3" transform="translate(764.96 476.5) rotate(-20.14) scale(1.04 1)"><tspan x="0" y="0">o</tspan></text>
    <text class="cls-3" transform="translate(815.94 456.69) rotate(-13.95) scale(1.04 1)"><tspan x="0" y="0">l</tspan></text>
    <text class="cls-3" transform="translate(867.88 442.68) rotate(-7.89) scale(1.04 1)"><tspan x="0" y="0">l</tspan></text>
    <text class="cls-3" transform="translate(922.17 434.14) rotate(-1.76) scale(1.04 1)"><tspan x="0" y="0">e</tspan></text>
    <text class="cls-3" transform="translate(981.4 431.46) rotate(4.8) scale(1.04 1)"><tspan x="0" y="0">g</tspan></text>
    <text class="cls-3" transform="translate(1041.04 435.62) rotate(11.51) scale(1.04 1)"><tspan x="0" y="0">e</tspan></text>
    <text class="cls-3" transform="translate(398.92 934.48) rotate(-82.16) scale(1.04 1)"><tspan x="0" y="0">A</tspan></text>
    <text class="cls-3" transform="translate(405.65 878.41) rotate(-75.79) scale(1.04 1)"><tspan x="0" y="0">l</tspan></text>
    <text class="cls-3" transform="translate(417.59 826.76) rotate(-69.8) scale(1.04 1)"><tspan x="0" y="0">g</tspan></text>
    <text class="cls-3" transform="translate(437.45 770.36) rotate(-63.05) scale(1.04 1)"><tspan x="0" y="0">o</tspan></text>
    <text class="cls-3" transform="translate(463.74 716.8) rotate(-56.34) scale(1.04 1)"><tspan x="0" y="0">n</tspan></text>
    <text class="cls-3" transform="translate(495.72 667.21) rotate(-49.75) scale(1.04 1)"><tspan x="0" y="0">q</tspan></text>
    <text class="cls-3" transform="translate(533.61 621.16) rotate(-43.09) scale(1.04 1)"><tspan x="0" y="0">u</tspan></text>
    <text class="cls-3" transform="translate(574.38 581.7) rotate(-36.76) scale(1.04 1)"><tspan x="0" y="0">i</tspan></text>
    <text class="cls-3" transform="translate(619.09 547.09) rotate(-30.42) scale(1.04 1)"><tspan x="0" y="0">n</tspan></text>
    <g>
      <text class="cls-4" transform="translate(403.98 925.66) rotate(-82.16) scale(1.04 1)"><tspan x="0" y="0">A</tspan></text>
      <text class="cls-4" transform="translate(410.71 869.59) rotate(-75.79) scale(1.04 1)"><tspan x="0" y="0">l</tspan></text>
      <text class="cls-4" transform="translate(422.66 817.94) rotate(-69.8) scale(1.04 1)"><tspan x="0" y="0">g</tspan></text>
      <text class="cls-4" transform="translate(442.52 761.54) rotate(-63.05) scale(1.04 1)"><tspan x="0" y="0">o</tspan></text>
      <text class="cls-4" transform="translate(468.81 707.98) rotate(-56.34) scale(1.04 1)"><tspan x="0" y="0">n</tspan></text>
      <text class="cls-4" transform="translate(500.79 658.39) rotate(-49.75) scale(1.04 1)"><tspan x="0" y="0">q</tspan></text>
      <text class="cls-4" transform="translate(538.67 612.34) rotate(-43.09) scale(1.04 1)"><tspan x="0" y="0">u</tspan></text>
      <text class="cls-4" transform="translate(579.45 572.88) rotate(-36.76) scale(1.04 1)"><tspan x="0" y="0">i</tspan></text>
      <text class="cls-4" transform="translate(624.15 538.27) rotate(-30.42) scale(1.04 1)"><tspan x="0" y="0">n</tspan></text>
      <text class="cls-4" transform="translate(718.98 494.32) rotate(-26.64) scale(1.04 1)"><tspan x="0" y="0">C</tspan></text>
      <text class="cls-4" transform="translate(770.02 467.68) rotate(-20.14) scale(1.04 1)"><tspan x="0" y="0">o</tspan></text>
      <text class="cls-4" transform="translate(821.01 447.86) rotate(-13.95) scale(1.04 1)"><tspan x="0" y="0">l</tspan></text>
      <text class="cls-4" transform="translate(872.98 433.85) rotate(-7.88) scale(1.04 1)"><tspan x="0" y="0">l</tspan></text>
      <text class="cls-4" transform="translate(927.23 425.31) rotate(-1.76) scale(1.04 1)"><tspan x="0" y="0">e</tspan></text>
      <text class="cls-4" transform="translate(986.47 422.64) rotate(4.8) scale(1.04 1)"><tspan x="0" y="0">g</tspan></text>
      <text class="cls-4" transform="translate(1046.13 426.8) rotate(11.51) scale(1.04 1)"><tspan x="0" y="0">e</tspan></text>
    </g>
  </g>
</svg>